<?xml version="1.0" encoding="UTF-8" standalone="no"?>
<!DOCTYPE svg PUBLIC "-//W3C//DTD SVG 1.1//EN"
 "http://www.w3.org/Graphics/SVG/1.1/DTD/svg11.dtd">
<!-- Generated by graphviz version 14.1.3 (20260303.0454)
 -->
<!-- Title: RAG Pages: 1 -->
<svg width="1593pt" height="597pt"
 viewBox="0.00 0.00 1593.00 597.00" xmlns="http://www.w3.org/2000/svg" xmlns:xlink="http://www.w3.org/1999/xlink">
<g id="graph0" class="graph" transform="scale(1 1) rotate(0) translate(28.8 567.8)">
<title>RAG</title>
<polygon fill="white" stroke="none" points="-28.8,28.8 -28.8,-567.8 1564.24,-567.8 1564.24,28.8 -28.8,28.8"/>
<text xml:space="preserve" text-anchor="start" x="588.84" y="-515.1" font-family="Helvetica,sans-Serif" font-weight="bold" font-size="22.00" fill="#0f172a">Enterprise RAG Support Assistant</text>
<text xml:space="preserve" text-anchor="start" x="519.47" y="-502.6" font-family="Helvetica,sans-Serif" font-size="12.00" fill="#64748b">How a user question becomes a grounded, governed answer, and how knowledge stays fresh</text>
<text xml:space="preserve" text-anchor="start" x="764.72" y="-481.1" font-family="Helvetica,sans-Serif" font-size="22.00" fill="#0f172a"> </text>
<g id="clust1" class="cluster">
<title>cluster_app</title>
<path fill="#eff6ff" stroke="#bfdbfe" d="M809.91,-369C809.91,-369 901.46,-369 901.46,-369 907.46,-369 913.46,-375 913.46,-381 913.46,-381 913.46,-455 913.46,-455 913.46,-461 907.46,-467 901.46,-467 901.46,-467 809.91,-467 809.91,-467 803.91,-467 797.91,-461 797.91,-455 797.91,-455 797.91,-381 797.91,-381 797.91,-375 803.91,-369 809.91,-369"/>
<text xml:space="preserve" text-anchor="middle" x="819.04" y="-450.65" font-family="Helvetica,sans-Serif" font-weight="bold" font-size="13.00" fill="#2563eb">App</text>
</g>
<g id="clust2" class="cluster">
<title>cluster_serve</title>
<path fill="#eef2ff" stroke="#c7d2fe" d="M596.46,-187C596.46,-187 1515.44,-187 1515.44,-187 1521.44,-187 1527.44,-193 1527.44,-199 1527.44,-199 1527.44,-349 1527.44,-349 1527.44,-355 1521.44,-361 1515.44,-361 1515.44,-361 596.46,-361 596.46,-361 590.46,-361 584.46,-355 584.46,-349 584.46,-349 584.46,-199 584.46,-199 584.46,-193 590.46,-187 596.46,-187"/>
<text xml:space="preserve" text-anchor="middle" x="653.96" y="-344.65" font-family="Helvetica,sans-Serif" font-weight="bold" font-size="13.00" fill="#4f46e5">Online answer path</text>
</g>
<g id="clust3" class="cluster">
<title>cluster_guard</title>
<path fill="#fff7ed" stroke="#fdba74" d="M1232.89,-236C1232.89,-236 1345.64,-236 1345.64,-236 1351.64,-236 1357.64,-242 1357.64,-248 1357.64,-248 1357.64,-311 1357.64,-311 1357.64,-317 1351.64,-323 1345.64,-323 1345.64,-323 1232.89,-323 1232.89,-323 1226.89,-323 1220.89,-317 1220.89,-311 1220.89,-311 1220.89,-248 1220.89,-248 1220.89,-242 1226.89,-236 1232.89,-236"/>
<text xml:space="preserve" text-anchor="middle" x="1289.26" y="-309.5" font-family="Helvetica,sans-Serif" font-weight="bold" font-size="10.00" fill="#ea580c">Guardrails: input + output</text>
</g>
<g id="clust4" class="cluster">
<title>cluster_ingest</title>
<path fill="#ecfdf5" stroke="#a7f3d0" d="M76.85,-8C76.85,-8 904.84,-8 904.84,-8 910.84,-8 916.84,-14 916.84,-20 916.84,-20 916.84,-94 916.84,-94 916.84,-100 910.84,-106 904.84,-106 904.84,-106 76.85,-106 76.85,-106 70.85,-106 64.85,-100 64.85,-94 64.85,-94 64.85,-20 64.85,-20 64.85,-14 70.85,-8 76.85,-8"/>
<text xml:space="preserve" text-anchor="middle" x="253.6" y="-89.65" font-family="Helvetica,sans-Serif" font-weight="bold" font-size="13.00" fill="#059669">Knowledge ingestion &#160;&#160;(offline, scheduled / event&#45;driven)</text>
</g>
<g id="clust5" class="cluster">
<title>cluster_gov</title>
<path fill="#fffbeb" stroke="#fde68a" d="M12,-116C12,-116 285.25,-116 285.25,-116 291.25,-116 297.25,-122 297.25,-128 297.25,-128 297.25,-278 297.25,-278 297.25,-284 291.25,-290 285.25,-290 285.25,-290 12,-290 12,-290 6,-290 0,-284 0,-278 0,-278 0,-128 0,-128 0,-122 6,-116 12,-116"/>
<text xml:space="preserve" text-anchor="middle" x="148.62" y="-273.65" font-family="Helvetica,sans-Serif" font-weight="bold" font-size="13.00" fill="#d97706">Governance + observability &#160;&#160;(cross&#45;cutting)</text>
</g>
<!-- user -->
<g id="node1" class="node">
<title>user</title>
<ellipse fill="#e2e8f0" stroke="#94a3b8" stroke-width="1.4" cx="650.48" cy="-433" rx="54.31" ry="22.25"/>
<text xml:space="preserve" text-anchor="middle" x="650.48" y="-427.98" font-family="Helvetica,sans-Serif" font-size="12.00" fill="#0f172a">End user</text>
</g>
<!-- chat -->
<g id="node2" class="node">
<title>chat</title>
<path fill="#dbeafe" stroke="#3b82f6" stroke-width="1.4" d="M885.46,-429.11C885.46,-429.11 825.91,-429.11 825.91,-429.11 819.91,-429.11 813.91,-423.11 813.91,-417.11 813.91,-417.11 813.91,-396.89 813.91,-396.89 813.91,-390.89 819.91,-384.89 825.91,-384.89 825.91,-384.89 885.46,-384.89 885.46,-384.89 891.46,-384.89 897.46,-390.89 897.46,-396.89 897.46,-396.89 897.46,-417.11 897.46,-417.11 897.46,-423.11 891.46,-429.11 885.46,-429.11"/>
<text xml:space="preserve" text-anchor="middle" x="855.69" y="-408.35" font-family="Helvetica,sans-Serif" font-size="12.00" fill="#0f172a">Chat / app</text>
<text xml:space="preserve" text-anchor="middle" x="855.69" y="-395.6" font-family="Helvetica,sans-Serif" font-size="12.00" fill="#0f172a">surface</text>
</g>
<!-- user&#45;&gt;chat -->
<g id="edge4" class="edge">
<title>user&#45;&gt;chat</title>
<path fill="none" stroke="#94a3b8" stroke-width="1.3" d="M692.66,-418.42C706.78,-414.1 722.8,-409.95 737.79,-407.75 759.19,-404.61 783.02,-403.96 803.57,-404.26"/>
<polygon fill="#94a3b8" stroke="#94a3b8" stroke-width="1.3" points="803.33,-407.06 811.39,-404.44 803.46,-401.46 803.33,-407.06"/>
<text xml:space="preserve" text-anchor="middle" x="757.66" y="-409.5" font-family="Helvetica,sans-Serif" font-size="10.00" fill="#475569">question</text>
</g>
<!-- chat&#45;&gt;user -->
<g id="edge12" class="edge">
<title>chat&#45;&gt;user</title>
<path fill="none" stroke="#94a3b8" stroke-width="1.3" d="M813.55,-415.13C801.94,-417.24 789.27,-419.38 777.54,-421 756.95,-423.84 734.38,-426.22 714.1,-428.09"/>
<polygon fill="#94a3b8" stroke="#94a3b8" stroke-width="1.3" points="714.02,-425.29 706.3,-428.79 714.52,-430.87 714.02,-425.29"/>
<text xml:space="preserve" text-anchor="middle" x="757.66" y="-427.33" font-family="Helvetica,sans-Serif" font-size="10.00" fill="#475569">answer</text>
</g>
<!-- orch -->
<g id="node3" class="node">
<title>orch</title>
<path fill="#e0e7ff" stroke="#6366f1" stroke-width="1.4" d="M688.51,-247.11C688.51,-247.11 612.46,-247.11 612.46,-247.11 606.46,-247.11 600.46,-241.11 600.46,-235.11 600.46,-235.11 600.46,-214.89 600.46,-214.89 600.46,-208.89 606.46,-202.89 612.46,-202.89 612.46,-202.89 688.51,-202.89 688.51,-202.89 694.51,-202.89 700.51,-208.89 700.51,-214.89 700.51,-214.89 700.51,-235.11 700.51,-235.11 700.51,-241.11 694.51,-247.11 688.51,-247.11"/>
<text xml:space="preserve" text-anchor="middle" x="650.48" y="-226.35" font-family="Helvetica,sans-Serif" font-size="12.00" fill="#0f172a">Orchestration</text>
<text xml:space="preserve" text-anchor="middle" x="650.48" y="-213.6" font-family="Helvetica,sans-Serif" font-size="12.00" fill="#0f172a">service</text>
</g>
<!-- chat&#45;&gt;orch -->
<g id="edge5" class="edge">
<title>chat&#45;&gt;orch</title>
<path fill="none" stroke="#94a3b8" stroke-width="1.3" d="M813.5,-385.03C807.58,-380.39 802.1,-375.05 797.91,-369 775.26,-336.25 802.84,-312.5 777.54,-281.75 760.57,-261.14 734.55,-247.72 710.55,-239.14"/>
<polygon fill="#94a3b8" stroke="#94a3b8" stroke-width="1.3" points="711.46,-236.5 702.98,-236.6 709.68,-241.8 711.46,-236.5"/>
<text xml:space="preserve" text-anchor="middle" x="757.66" y="-283.5" font-family="Helvetica,sans-Serif" font-size="10.00" fill="#475569">request</text>
</g>
<!-- cache -->
<g id="node8" class="node">
<title>cache</title>
<path fill="#ffffff" stroke="#94a3b8" stroke-width="1.4" stroke-dasharray="5,2" d="M680.26,-323.11C680.26,-323.11 620.71,-323.11 620.71,-323.11 614.71,-323.11 608.71,-317.11 608.71,-311.11 608.71,-311.11 608.71,-290.89 608.71,-290.89 608.71,-284.89 614.71,-278.89 620.71,-278.89 620.71,-278.89 680.26,-278.89 680.26,-278.89 686.26,-278.89 692.26,-284.89 692.26,-290.89 692.26,-290.89 692.26,-311.11 692.26,-311.11 692.26,-317.11 686.26,-323.11 680.26,-323.11"/>
<text xml:space="preserve" text-anchor="middle" x="650.48" y="-302.35" font-family="Helvetica,sans-Serif" font-size="12.00" fill="#64748b">Response</text>
<text xml:space="preserve" text-anchor="middle" x="650.48" y="-289.6" font-family="Helvetica,sans-Serif" font-size="12.00" fill="#64748b">cache</text>
</g>
<!-- chat&#45;&gt;cache -->
<g id="edge15" class="edge">
<title>chat&#45;&gt;cache</title>
<path fill="none" stroke="#cbd5e1" stroke-width="1.3" stroke-dasharray="5,2" d="M813.96,-384.24C808.06,-379.73 802.46,-374.63 797.91,-369 782.5,-349.94 796.87,-332.82 777.54,-317.75 756.56,-301.39 727.4,-296.72 702.41,-296.36"/>
<polygon fill="#cbd5e1" stroke="#cbd5e1" stroke-width="1.3" points="702.65,-293.56 694.67,-296.42 702.69,-299.16 702.65,-293.56"/>
<text xml:space="preserve" text-anchor="middle" x="757.66" y="-319.5" font-family="Helvetica,sans-Serif" font-size="10.00" fill="#94a3b8">cache hit</text>
</g>
<!-- retr -->
<g id="node4" class="node">
<title>retr</title>
<path fill="#e0e7ff" stroke="#6366f1" stroke-width="1.4" d="M882.09,-247.11C882.09,-247.11 829.29,-247.11 829.29,-247.11 823.29,-247.11 817.29,-241.11 817.29,-235.11 817.29,-235.11 817.29,-214.89 817.29,-214.89 817.29,-208.89 823.29,-202.89 829.29,-202.89 829.29,-202.89 882.09,-202.89 882.09,-202.89 888.09,-202.89 894.09,-208.89 894.09,-214.89 894.09,-214.89 894.09,-235.11 894.09,-235.11 894.09,-241.11 888.09,-247.11 882.09,-247.11"/>
<text xml:space="preserve" text-anchor="middle" x="855.69" y="-226.35" font-family="Helvetica,sans-Serif" font-size="12.00" fill="#0f172a">Retrieval</text>
<text xml:space="preserve" text-anchor="middle" x="855.69" y="-213.6" font-family="Helvetica,sans-Serif" font-size="12.00" fill="#0f172a">service</text>
</g>
<!-- orch&#45;&gt;retr -->
<g id="edge6" class="edge">
<title>orch&#45;&gt;retr</title>
<path fill="none" stroke="#94a3b8" stroke-width="1.3" d="M701.19,-225C733.32,-225 774.9,-225 806.68,-225"/>
<polygon fill="#94a3b8" stroke="#94a3b8" stroke-width="1.3" points="806.67,-227.8 814.67,-225 806.67,-222.2 806.67,-227.8"/>
</g>
<!-- gen -->
<g id="node6" class="node">
<title>gen</title>
<path fill="#ffedd5" stroke="#ea580c" stroke-width="1.4" d="M1319.66,-292.11C1319.66,-292.11 1257.86,-292.11 1257.86,-292.11 1251.86,-292.11 1245.86,-286.11 1245.86,-280.11 1245.86,-280.11 1245.86,-259.89 1245.86,-259.89 1245.86,-253.89 1251.86,-247.89 1257.86,-247.89 1257.86,-247.89 1319.66,-247.89 1319.66,-247.89 1325.66,-247.89 1331.66,-253.89 1331.66,-259.89 1331.66,-259.89 1331.66,-280.11 1331.66,-280.11 1331.66,-286.11 1325.66,-292.11 1319.66,-292.11"/>
<text xml:space="preserve" text-anchor="middle" x="1288.76" y="-271.35" font-family="Helvetica,sans-Serif" font-size="12.00" fill="#0f172a">LLM</text>
<text xml:space="preserve" text-anchor="middle" x="1288.76" y="-258.6" font-family="Helvetica,sans-Serif" font-size="12.00" fill="#0f172a">generation</text>
</g>
<!-- retr&#45;&gt;gen -->
<g id="edge9" class="edge">
<title>retr&#45;&gt;gen</title>
<path fill="none" stroke="#94a3b8" stroke-width="1.3" d="M894.56,-228.95C971.81,-237.02 1147.66,-255.38 1235.63,-264.56"/>
<polygon fill="#94a3b8" stroke="#94a3b8" stroke-width="1.3" points="1235.19,-267.33 1243.44,-265.37 1235.77,-261.76 1235.19,-267.33"/>
<text xml:space="preserve" text-anchor="middle" x="1037.49" y="-249.25" font-family="Helvetica,sans-Serif" font-size="10.00" fill="#475569">context</text>
</g>
<!-- rerank -->
<g id="node7" class="node">
<title>rerank</title>
<path fill="#ffffff" stroke="#94a3b8" stroke-width="1.4" stroke-dasharray="5,2" d="M1064.64,-314C1064.64,-314 1010.34,-314 1010.34,-314 1004.34,-314 998.34,-308 998.34,-302 998.34,-302 998.34,-290 998.34,-290 998.34,-284 1004.34,-278 1010.34,-278 1010.34,-278 1064.64,-278 1064.64,-278 1070.64,-278 1076.64,-284 1076.64,-290 1076.64,-290 1076.64,-302 1076.64,-302 1076.64,-308 1070.64,-314 1064.64,-314"/>
<text xml:space="preserve" text-anchor="middle" x="1037.49" y="-290.98" font-family="Helvetica,sans-Serif" font-size="12.00" fill="#64748b">Reranker</text>
</g>
<!-- retr&#45;&gt;rerank -->
<g id="edge13" class="edge">
<title>retr&#45;&gt;rerank</title>
<path fill="none" stroke="#cbd5e1" stroke-width="1.3" stroke-dasharray="5,2" d="M894.38,-239.88C921.91,-250.75 959.43,-265.57 989.01,-277.25"/>
<polygon fill="#cbd5e1" stroke="#cbd5e1" stroke-width="1.3" points="987.61,-279.71 996.08,-280.05 989.67,-274.5 987.61,-279.71"/>
<text xml:space="preserve" text-anchor="middle" x="949.59" y="-268.61" font-family="Helvetica,sans-Serif" font-size="10.00" fill="#94a3b8">future</text>
</g>
<!-- vindex -->
<g id="node9" class="node">
<title>vindex</title>
<path fill="#bfdbfe" stroke="#1d4ed8" stroke-width="3" d="M1069.89,-165.87C1069.89,-168.92 1055.36,-171.4 1037.49,-171.4 1019.61,-171.4 1005.09,-168.92 1005.09,-165.87 1005.09,-165.87 1005.09,-116.13 1005.09,-116.13 1005.09,-113.08 1019.61,-110.6 1037.49,-110.6 1055.36,-110.6 1069.89,-113.08 1069.89,-116.13 1069.89,-116.13 1069.89,-165.87 1069.89,-165.87"/>
<path fill="none" stroke="#1d4ed8" stroke-width="3" d="M1069.89,-165.87C1069.89,-162.82 1055.36,-160.35 1037.49,-160.35 1019.61,-160.35 1005.09,-162.82 1005.09,-165.87"/>
<text xml:space="preserve" text-anchor="middle" x="1037.49" y="-142.35" font-family="Helvetica,sans-Serif" font-weight="bold" font-size="12.00" fill="#0f172a">Vector</text>
<text xml:space="preserve" text-anchor="middle" x="1037.49" y="-129.6" font-family="Helvetica,sans-Serif" font-weight="bold" font-size="12.00" fill="#0f172a">index</text>
</g>
<!-- retr&#45;&gt;vindex -->
<g id="edge7" class="edge">
<title>retr&#45;&gt;vindex</title>
<path fill="none" stroke="#94a3b8" stroke-width="1.3" d="M877.11,-202.46C891.54,-187.98 912.11,-170.02 933.84,-159.75 952.53,-150.92 974.95,-146.24 994.07,-143.76"/>
<polygon fill="#94a3b8" stroke="#94a3b8" stroke-width="1.3" points="994.14,-146.57 1001.77,-142.88 993.5,-141 994.14,-146.57"/>
<text xml:space="preserve" text-anchor="middle" x="949.59" y="-161.5" font-family="Helvetica,sans-Serif" font-size="10.00" fill="#475569">search</text>
</g>
<!-- cite -->
<g id="node5" class="node">
<title>cite</title>
<path fill="#e0e7ff" stroke="#6366f1" stroke-width="1.4" d="M1499.44,-315.11C1499.44,-315.11 1440.64,-315.11 1440.64,-315.11 1434.64,-315.11 1428.64,-309.11 1428.64,-303.11 1428.64,-303.11 1428.64,-282.89 1428.64,-282.89 1428.64,-276.89 1434.64,-270.89 1440.64,-270.89 1440.64,-270.89 1499.44,-270.89 1499.44,-270.89 1505.44,-270.89 1511.44,-276.89 1511.44,-282.89 1511.44,-282.89 1511.44,-303.11 1511.44,-303.11 1511.44,-309.11 1505.44,-315.11 1499.44,-315.11"/>
<text xml:space="preserve" text-anchor="middle" x="1470.04" y="-294.35" font-family="Helvetica,sans-Serif" font-size="12.00" fill="#0f172a">Citation +</text>
<text xml:space="preserve" text-anchor="middle" x="1470.04" y="-281.6" font-family="Helvetica,sans-Serif" font-size="12.00" fill="#0f172a">grounding</text>
</g>
<!-- cite&#45;&gt;chat -->
<g id="edge11" class="edge">
<title>cite&#45;&gt;chat</title>
<path fill="none" stroke="#94a3b8" stroke-width="1.3" d="M1428.03,-308.95C1407.21,-316.54 1381.36,-325.2 1357.64,-331 1195.79,-370.55 999.22,-393.18 907.9,-402.27"/>
<polygon fill="#94a3b8" stroke="#94a3b8" stroke-width="1.3" points="907.72,-399.48 900.04,-403.05 908.27,-405.05 907.72,-399.48"/>
<text xml:space="preserve" text-anchor="middle" x="1146.76" y="-379" font-family="Helvetica,sans-Serif" font-size="10.00" fill="#475569">grounded answer</text>
</g>
<!-- gen&#45;&gt;cite -->
<g id="edge10" class="edge">
<title>gen&#45;&gt;cite</title>
<path fill="none" stroke="#94a3b8" stroke-width="1.3" d="M1332.25,-275.45C1358.07,-278.76 1391.19,-283.01 1418.37,-286.5"/>
<polygon fill="#94a3b8" stroke="#94a3b8" stroke-width="1.3" points="1417.85,-289.26 1426.14,-287.5 1418.56,-283.7 1417.85,-289.26"/>
</g>
<!-- rerank&#45;&gt;gen -->
<g id="edge14" class="edge">
<title>rerank&#45;&gt;gen</title>
<path fill="none" stroke="#cbd5e1" stroke-width="1.3" stroke-dasharray="5,2" d="M1077.16,-291.97C1119.68,-287.53 1188.21,-280.38 1235.49,-275.45"/>
<polygon fill="#cbd5e1" stroke="#cbd5e1" stroke-width="1.3" points="1235.61,-278.25 1243.28,-274.64 1235.03,-272.68 1235.61,-278.25"/>
</g>
<!-- cache&#45;&gt;chat -->
<g id="edge16" class="edge">
<title>cache&#45;&gt;chat</title>
<path fill="none" stroke="#cbd5e1" stroke-width="1.3" stroke-dasharray="5,2" d="M692.6,-322.45C725,-339.35 770.29,-362.97 804.76,-380.96"/>
<polygon fill="#cbd5e1" stroke="#cbd5e1" stroke-width="1.3" points="803.15,-383.27 811.53,-384.49 805.74,-378.31 803.15,-383.27"/>
</g>
<!-- vindex&#45;&gt;retr -->
<g id="edge8" class="edge">
<title>vindex&#45;&gt;retr</title>
<path fill="none" stroke="#94a3b8" stroke-width="1.3" d="M1003.59,-156.84C991.57,-162.6 977.86,-169.13 965.34,-175 945.13,-184.48 922.74,-194.81 903.56,-203.61"/>
<polygon fill="#94a3b8" stroke="#94a3b8" stroke-width="1.3" points="902.61,-200.97 896.5,-206.84 904.94,-206.06 902.61,-200.97"/>
<text xml:space="preserve" text-anchor="middle" x="949.59" y="-190.62" font-family="Helvetica,sans-Serif" font-size="10.00" fill="#475569">chunks</text>
</g>
<!-- src -->
<g id="node10" class="node">
<title>src</title>
<path fill="#d1fae5" stroke="#10b981" stroke-width="1.4" d="M203.4,-68.11C203.4,-68.11 92.85,-68.11 92.85,-68.11 86.85,-68.11 80.85,-62.11 80.85,-56.11 80.85,-56.11 80.85,-35.89 80.85,-35.89 80.85,-29.89 86.85,-23.89 92.85,-23.89 92.85,-23.89 203.4,-23.89 203.4,-23.89 209.4,-23.89 215.4,-29.89 215.4,-35.89 215.4,-35.89 215.4,-56.11 215.4,-56.11 215.4,-62.11 209.4,-68.11 203.4,-68.11"/>
<text xml:space="preserve" text-anchor="middle" x="148.12" y="-47.35" font-family="Helvetica,sans-Serif" font-size="12.00" fill="#0f172a">Knowledge sources</text>
<text xml:space="preserve" text-anchor="middle" x="148.12" y="-34.6" font-family="Helvetica,sans-Serif" font-size="12.00" fill="#0f172a">docs, tickets, KB</text>
</g>
<!-- conn -->
<g id="node11" class="node">
<title>conn</title>
<path fill="#d1fae5" stroke="#10b981" stroke-width="1.4" d="M467.93,-68.11C467.93,-68.11 410.63,-68.11 410.63,-68.11 404.63,-68.11 398.63,-62.11 398.63,-56.11 398.63,-56.11 398.63,-35.89 398.63,-35.89 398.63,-29.89 404.63,-23.89 410.63,-23.89 410.63,-23.89 467.93,-23.89 467.93,-23.89 473.93,-23.89 479.93,-29.89 479.93,-35.89 479.93,-35.89 479.93,-56.11 479.93,-56.11 479.93,-62.11 473.93,-68.11 467.93,-68.11"/>
<text xml:space="preserve" text-anchor="middle" x="439.28" y="-47.35" font-family="Helvetica,sans-Serif" font-size="12.00" fill="#0f172a">Ingestion</text>
<text xml:space="preserve" text-anchor="middle" x="439.28" y="-34.6" font-family="Helvetica,sans-Serif" font-size="12.00" fill="#0f172a">connector</text>
</g>
<!-- src&#45;&gt;conn -->
<g id="edge1" class="edge">
<title>src&#45;&gt;conn</title>
<path fill="none" stroke="#34d399" stroke-width="1.6" d="M215.82,-46C268.23,-46 340.1,-46 387.81,-46"/>
<polygon fill="#34d399" stroke="#34d399" stroke-width="1.6" points="387.77,-48.8 395.77,-46 387.77,-43.2 387.77,-48.8"/>
</g>
<!-- chunk -->
<g id="node12" class="node">
<title>chunk</title>
<path fill="#d1fae5" stroke="#10b981" stroke-width="1.4" d="M688.88,-68.11C688.88,-68.11 612.08,-68.11 612.08,-68.11 606.08,-68.11 600.08,-62.11 600.08,-56.11 600.08,-56.11 600.08,-35.89 600.08,-35.89 600.08,-29.89 606.08,-23.89 612.08,-23.89 612.08,-23.89 688.88,-23.89 688.88,-23.89 694.88,-23.89 700.88,-29.89 700.88,-35.89 700.88,-35.89 700.88,-56.11 700.88,-56.11 700.88,-62.11 694.88,-68.11 688.88,-68.11"/>
<text xml:space="preserve" text-anchor="middle" x="650.48" y="-47.35" font-family="Helvetica,sans-Serif" font-size="12.00" fill="#0f172a">Chunking +</text>
<text xml:space="preserve" text-anchor="middle" x="650.48" y="-34.6" font-family="Helvetica,sans-Serif" font-size="12.00" fill="#0f172a">normalization</text>
</g>
<!-- conn&#45;&gt;chunk -->
<g id="edge2" class="edge">
<title>conn&#45;&gt;chunk</title>
<path fill="none" stroke="#34d399" stroke-width="1.6" d="M480.61,-46C511.52,-46 554.65,-46 589.58,-46"/>
<polygon fill="#34d399" stroke="#34d399" stroke-width="1.6" points="589.25,-48.8 597.25,-46 589.25,-43.2 589.25,-48.8"/>
</g>
<!-- embed -->
<g id="node13" class="node">
<title>embed</title>
<path fill="#d1fae5" stroke="#10b981" stroke-width="1.4" d="M888.84,-68.11C888.84,-68.11 822.54,-68.11 822.54,-68.11 816.54,-68.11 810.54,-62.11 810.54,-56.11 810.54,-56.11 810.54,-35.89 810.54,-35.89 810.54,-29.89 816.54,-23.89 822.54,-23.89 822.54,-23.89 888.84,-23.89 888.84,-23.89 894.84,-23.89 900.84,-29.89 900.84,-35.89 900.84,-35.89 900.84,-56.11 900.84,-56.11 900.84,-62.11 894.84,-68.11 888.84,-68.11"/>
<text xml:space="preserve" text-anchor="middle" x="855.69" y="-47.35" font-family="Helvetica,sans-Serif" font-size="12.00" fill="#0f172a">Embedding</text>
<text xml:space="preserve" text-anchor="middle" x="855.69" y="-34.6" font-family="Helvetica,sans-Serif" font-size="12.00" fill="#0f172a">generator</text>
</g>
<!-- chunk&#45;&gt;embed -->
<g id="edge3" class="edge">
<title>chunk&#45;&gt;embed</title>
<path fill="none" stroke="#34d399" stroke-width="1.6" d="M701.45,-46C731.33,-46 769.32,-46 800,-46"/>
<polygon fill="#34d399" stroke="#34d399" stroke-width="1.6" points="799.68,-48.8 807.68,-46 799.68,-43.2 799.68,-48.8"/>
</g>
<!-- embed&#45;&gt;vindex -->
<g id="edge17" class="edge">
<title>embed&#45;&gt;vindex</title>
<path fill="none" stroke="#34d399" stroke-width="1.6" d="M899.75,-68.75C928.53,-83.96 966.2,-103.86 994.71,-118.93"/>
<polygon fill="#34d399" stroke="#34d399" stroke-width="1.6" points="993.1,-121.24 1001.48,-122.5 995.71,-116.29 993.1,-121.24"/>
<text xml:space="preserve" text-anchor="middle" x="949.59" y="-103.76" font-family="Helvetica,sans-Serif" font-size="10.00" fill="#475569">upsert</text>
</g>
<!-- gov -->
<g id="node14" class="node">
<title>gov</title>
<path fill="#fef3c7" stroke="#f59e0b" stroke-width="1.4" d="M199.28,-176.11C199.28,-176.11 96.97,-176.11 96.97,-176.11 90.97,-176.11 84.97,-170.11 84.97,-164.11 84.97,-164.11 84.97,-143.89 84.97,-143.89 84.97,-137.89 90.97,-131.89 96.97,-131.89 96.97,-131.89 199.28,-131.89 199.28,-131.89 205.28,-131.89 211.28,-137.89 211.28,-143.89 211.28,-143.89 211.28,-164.11 211.28,-164.11 211.28,-170.11 205.28,-176.11 199.28,-176.11"/>
<text xml:space="preserve" text-anchor="middle" x="148.12" y="-155.35" font-family="Helvetica,sans-Serif" font-size="12.00" fill="#0f172a">Access +</text>
<text xml:space="preserve" text-anchor="middle" x="148.12" y="-142.6" font-family="Helvetica,sans-Serif" font-size="12.00" fill="#0f172a">permission control</text>
</g>
<!-- gov&#45;&gt;retr -->
<g id="edge19" class="edge">
<title>gov&#45;&gt;retr</title>
<path fill="none" stroke="#fbbf24" stroke-width="1.3" d="M211.62,-153.88C314.89,-154.53 527.4,-159.5 704.79,-187 739.47,-192.38 777.82,-202.17 807.04,-210.47"/>
<polygon fill="#fbbf24" stroke="#fbbf24" stroke-width="1.3" points="806.23,-213.15 814.7,-212.67 807.78,-207.77 806.23,-213.15"/>
<text xml:space="preserve" text-anchor="middle" x="538.05" y="-182.54" font-family="Helvetica,sans-Serif" font-size="10.00" fill="#475569">permission&#45;</text>
<text xml:space="preserve" text-anchor="middle" x="538.05" y="-171.29" font-family="Helvetica,sans-Serif" font-size="10.00" fill="#475569">filtered</text>
</g>
<!-- gov&#45;&gt;conn -->
<g id="edge18" class="edge">
<title>gov&#45;&gt;conn</title>
<path fill="none" stroke="#fbbf24" stroke-width="1.3" d="M211.91,-139.79C238.58,-133.05 269.79,-124.23 297.25,-114 328.72,-102.28 362.65,-86.04 389.35,-72.36"/>
<polygon fill="#fbbf24" stroke="#fbbf24" stroke-width="1.3" points="390.54,-74.9 396.36,-68.74 387.97,-69.93 390.54,-74.9"/>
<text xml:space="preserve" text-anchor="middle" x="342" y="-117.53" font-family="Helvetica,sans-Serif" font-size="10.00" fill="#475569">permission</text>
<text xml:space="preserve" text-anchor="middle" x="342" y="-106.28" font-family="Helvetica,sans-Serif" font-size="10.00" fill="#475569">at ingest</text>
</g>
<!-- obs -->
<g id="node15" class="node">
<title>obs</title>
<path fill="#fef3c7" stroke="#f59e0b" stroke-width="1.4" d="M190.65,-252.11C190.65,-252.11 105.6,-252.11 105.6,-252.11 99.6,-252.11 93.6,-246.11 93.6,-240.11 93.6,-240.11 93.6,-219.89 93.6,-219.89 93.6,-213.89 99.6,-207.89 105.6,-207.89 105.6,-207.89 190.65,-207.89 190.65,-207.89 196.65,-207.89 202.65,-213.89 202.65,-219.89 202.65,-219.89 202.65,-240.11 202.65,-240.11 202.65,-246.11 196.65,-252.11 190.65,-252.11"/>
<text xml:space="preserve" text-anchor="middle" x="148.12" y="-231.35" font-family="Helvetica,sans-Serif" font-size="12.00" fill="#0f172a">Observability +</text>
<text xml:space="preserve" text-anchor="middle" x="148.12" y="-218.6" font-family="Helvetica,sans-Serif" font-size="12.00" fill="#0f172a">feedback / eval</text>
</g>
<!-- obs&#45;&gt;orch -->
<g id="edge20" class="edge">
<title>obs&#45;&gt;orch</title>
<path fill="none" stroke="#fcd34d" stroke-width="1.3" stroke-dasharray="5,2" d="M203.15,-229.46C297.57,-228.52 491.9,-226.57 590.02,-225.59"/>
<polygon fill="#fcd34d" stroke="#fcd34d" stroke-width="1.3" points="589.84,-228.4 597.81,-225.52 589.79,-222.8 589.84,-228.4"/>
<text xml:space="preserve" text-anchor="middle" x="439.28" y="-229.25" font-family="Helvetica,sans-Serif" font-size="10.00" fill="#475569">tune k / prompts</text>
</g>
</g>
</svg>
